<?xml version="1.0" standalone="no"?>
<!DOCTYPE svg PUBLIC "-//W3C//DTD SVG 20010904//EN"
 "http://www.w3.org/TR/2001/REC-SVG-20010904/DTD/svg10.dtd">
<svg version="1.0" xmlns="http://www.w3.org/2000/svg"
 width="260.000000pt" height="260.000000pt" viewBox="0 0 260.000000 260.000000"
 preserveAspectRatio="xMidYMid meet">
<metadata>
Created by potrace 1.14, written by Peter Selinger 2001-2017
</metadata>
<g transform="translate(0.000000,260.000000) scale(0.100000,-0.100000)"
fill="#000000" stroke="none">
<path d="M0 1300 l0 -1300 1300 0 1300 0 0 1300 0 1300 -1300 0 -1300 0 0
-1300z m1100 573 c0 -278 3 -345 13 -335 6 7 113 162 237 345 l226 332 262 3
c144 1 262 -1 262 -4 0 -4 -122 -172 -270 -374 l-270 -368 325 -542 c179 -298
325 -543 325 -546 0 -2 -118 -4 -262 -4 l-263 0 -204 355 -204 354 -88 -126
-89 -127 0 -228 0 -228 -240 0 -240 0 0 920 0 920 240 0 240 0 0 -347z"/>
</g>
</svg>
